<svg xmlns="http://www.w3.org/2000/svg" xmlns:xlink="http://www.w3.org/1999/xlink" version="1.1" width="1160" height="944"><g id="Context Diagram"><g id="IBM  Cloud"><rect width="328" height="232" rx="8" ry="8" fill-opacity="0.02" fill="#000000" stroke-opacity="1" stroke-width="2" stroke="#cfd2d2" opacity="1" x="32" y="680"></rect><text font-family="Lato, Arial, sans-serif" font-size="16" fill="#0c0d0d" opacity="1" x="48" y="711.7919999999999"><tspan dy="0" x="48">IBM  Cloud</tspan></text><g id="[Group]" opacity="1"><text font-family="Lato, Arial, sans-serif" font-size="12" text-anchor="middle" fill="#595f61" x="196" y="900.644"><tspan dy="0" x="196">[Group]</tspan></text></g></g><g id="AZURE Cloud"><rect width="296" height="240" rx="8" ry="8" fill-opacity="0.02" fill="#000000" stroke-opacity="1" stroke-width="2" stroke="#cfd2d2" opacity="1" x="632" y="656"></rect><text font-family="Lato, Arial, sans-serif" font-size="16" fill="#0c0d0d" opacity="1" x="648" y="687.7919999999999"><tspan dy="0" x="648">AZURE Cloud</tspan></text><g id="[Group]" opacity="1"><text font-family="Lato, Arial, sans-serif" font-size="12" text-anchor="middle" fill="#595f61" x="780" y="884.644"><tspan dy="0" x="780">[Group]</tspan></text></g></g><g id="Local DataCenter"><rect width="480" height="240" rx="8" ry="8" fill-opacity="0.02" fill="#000000" stroke-opacity="1" stroke-width="2" stroke="#cfd2d2" opacity="1" x="192" y="312"></rect><text font-family="Lato, Arial, sans-serif" font-size="16" fill="#0c0d0d" opacity="1" x="208" y="343.7920000000001"><tspan dy="0" x="208">Local DataCenter</tspan></text><g id="[Group]" opacity="1"><text font-family="Lato, Arial, sans-serif" font-size="12" text-anchor="middle" fill="#595f61" x="432" y="540.644"><tspan dy="0" x="432">[Group]</tspan></text></g></g><g id="Uploads file for transformation through http"><polyline points="444,160 444.6600000000001,226.55 446.28999999999996,250.7 449.71000000000004,277.3 450.8800000000001,291.85 451.9200000000001,327.15 452,368" fill="none" stroke-width="1" stroke="#adb3b3" opacity="1"></polyline></g><g id="Uploads file for transformation through http"><rect width="107.522" height="52.8" x="394.23926410653576" y="237.60205416194452" rx="4" ry="4" fill-opacity="0.8" fill="#e5e7e8" stroke-opacity="1" stroke-width="1" stroke="#cfd2d2" opacity="0.8"></rect><g opacity="1" fill="#434647"><text font-family="Lato, Arial, sans-serif" font-size="14" text-anchor="middle" x="448.0002641065357" y="253.4200541619445"><tspan dy="0" x="448.0002641065357">Uploads file for</tspan></text><text font-family="Lato, Arial, sans-serif" font-size="14" text-anchor="middle" x="448.0002641065357" y="269.4200541619445"><tspan dy="0" x="448.0002641065357">transformation</tspan></text><text font-family="Lato, Arial, sans-serif" font-size="14" text-anchor="middle" x="448.0002641065357" y="285.4200541619445"><tspan dy="0" x="448.0002641065357">through http</tspan></text></g></g><g id="Save extracted images on IBM Blob Storage"><polyline points="374,528 374,552 373.25,565.73 371.06999999999994,577.5 367.58000000000004,587.46 362.90999999999997,595.78 357.16999999999996,602.63 350.48,608.1700000000001 342.95000000000005,612.56 334.72,615.97 325.89,618.56 306.91999999999996,621.94 267.08000000000004,626.06 248.11,629.44 239.27999999999997,632.03 231.04999999999995,635.44 223.51999999999998,639.8299999999999 216.83000000000004,645.37 211.09000000000003,652.22 206.41999999999996,660.54 202.92999999999995,670.5 200.75,682.27 200,696 200,720" fill="none" stroke-width="1" stroke="#adb3b3" opacity="1"></polyline></g><g id="Save extracted images on IBM Blob Storage"><rect width="136.838" height="52.8" x="218.58100000000002" y="597.6" rx="4" ry="4" fill-opacity="0.8" fill="#e5e7e8" stroke-opacity="1" stroke-width="1" stroke="#cfd2d2" opacity="0.8"></rect><g opacity="1" fill="#434647"><text font-family="Lato, Arial, sans-serif" font-size="14" text-anchor="middle" x="287" y="613.418"><tspan dy="0" x="287">Save extracted</tspan></text><text font-family="Lato, Arial, sans-serif" font-size="14" text-anchor="middle" x="287" y="629.418"><tspan dy="0" x="287">images on IBM Blob</tspan></text><text font-family="Lato, Arial, sans-serif" font-size="14" text-anchor="middle" x="287" y="645.418"><tspan dy="0" x="287">Storage</tspan></text></g></g><g id="Saves extracted images  on  azure  Blob Storage"><polyline points="530,528 530,552 530.6600000000001,562.99 532.5999999999999,572.73 535.73,581.3199999999999 539.97,588.8199999999999 545.23,595.3199999999999 551.44,600.9 558.51,605.64 566.3599999999999,609.62 574.9100000000001,612.9100000000001 593.78,617.78 625.26,621.97 680.74,626.03 702.0699999999999,628.49 721.9200000000001,632.4 731.0899999999999,635.0899999999999 739.6400000000001,638.38 747.49,642.36 754.56,647.1 760.77,652.6800000000001 766.03,659.18 770.27,666.68 773.4000000000001,675.27 775.3399999999999,685.01 776,696 776,720" fill="none" stroke-width="1" stroke="#adb3b3" opacity="1"></polyline></g><g id="Saves extracted images  on  azure  Blob Storage"><rect width="122.488" height="52.8" x="591.7626348891148" y="597.6004855380282" rx="4" ry="4" fill-opacity="0.8" fill="#e5e7e8" stroke-opacity="1" stroke-width="1" stroke="#cfd2d2" opacity="0.8"></rect><g opacity="1" fill="#434647"><text font-family="Lato, Arial, sans-serif" font-size="14" text-anchor="middle" x="653.0066348891148" y="613.4184855380282"><tspan dy="0" x="653.0066348891148">Saves extracted</tspan></text><text font-family="Lato, Arial, sans-serif" font-size="14" text-anchor="middle" x="653.0066348891148" y="629.4184855380282"><tspan dy="0" x="653.0066348891148">images  on  azure </tspan></text><text font-family="Lato, Arial, sans-serif" font-size="14" text-anchor="middle" x="653.0066348891148" y="645.4184855380282"><tspan dy="0" x="653.0066348891148">Blob Storage</tspan></text></g></g><g id="Download markdown document through http"><polyline points="608,448 645.55,447.5 657.8199999999999,446.06 668.9100000000001,443.75 678.9200000000001,440.64 687.96,436.82 696.1300000000001,432.35 703.53,427.32 716.44,415.85 727.51,403.03 747.3900000000001,375.71000000000004 757.8399999999999,362.43 769.73,350.21000000000004 783.8699999999999,339.65 792.04,335.18 801.0799999999999,331.36 811.0899999999999,328.25 822.1800000000001,325.94 834.45,324.5 872,324" fill="none" stroke-width="1" stroke="#adb3b3" opacity="1"></polyline></g><g id="Download markdown document through http"><rect width="127.89200000000001" height="68.80000000000001" x="675.9874165351399" y="351.5571760694154" rx="4" ry="4" fill-opacity="0.8" fill="#e5e7e8" stroke-opacity="1" stroke-width="1" stroke="#cfd2d2" opacity="0.8"></rect><g opacity="1" fill="#434647"><text font-family="Lato, Arial, sans-serif" font-size="14" text-anchor="middle" x="739.9334165351399" y="367.3751760694154"><tspan dy="0" x="739.9334165351399">Download</tspan></text><text font-family="Lato, Arial, sans-serif" font-size="14" text-anchor="middle" x="739.9334165351399" y="383.3751760694154"><tspan dy="0" x="739.9334165351399">markdown</tspan></text><text font-family="Lato, Arial, sans-serif" font-size="14" text-anchor="middle" x="739.9334165351399" y="399.3751760694154"><tspan dy="0" x="739.9334165351399">document through</tspan></text><text font-family="Lato, Arial, sans-serif" font-size="14" text-anchor="middle" x="739.9334165351399" y="415.3751760694154"><tspan dy="0" x="739.9334165351399">http</tspan></text></g></g><g id="Download extracted images through http"><polyline points="608,448 641.56,448.12 672.3299999999999,449.8 705.5999999999999,452.94 800.22,463.59 847.0799999999999,467.32 869.53,468.12 891.01,467.96 911.27,466.64 930.06,463.99 947.1500000000001,459.81 954.97,457.09 969.03,450.26 980.76,441.43 985.6800000000001,436.2 989.9300000000001,430.4 993.47,424.01 996.28,416.99 998.3299999999999,409.34 999.5799999999999,401.01 1000,392 1000,368" fill="none" stroke-width="1" stroke="#adb3b3" opacity="1"></polyline></g><g id="Download extracted images through http"><rect width="139.491" height="36.8" x="766.3647383201871" y="448.0468200796906" rx="4" ry="4" fill-opacity="0.8" fill="#e5e7e8" stroke-opacity="1" stroke-width="1" stroke="#cfd2d2" opacity="0.8"></rect><g opacity="1" fill="#434647"><text font-family="Lato, Arial, sans-serif" font-size="14" text-anchor="middle" x="836.1102383201871" y="463.86482007969056"><tspan dy="0" x="836.1102383201871">Download extracted</tspan></text><text font-family="Lato, Arial, sans-serif" font-size="14" text-anchor="middle" x="836.1102383201871" y="479.86482007969056"><tspan dy="0" x="836.1102383201871">images through http</tspan></text></g></g><a href="https://app.icepanel.io/landscapes/RaFbGXGqECpWIiLQf7lQ/versions/latest/model/objects?object=fanuu0ney5p&amp;focus=fanuu0ney5p" id="Document producer" target="_blank"><rect width="56" height="56" rx="8" ry="8" fill-opacity="0.8" fill="#f5f6f6" stroke-opacity="1" stroke-width="1" stroke="#adb3b3" opacity="1" x="416" y="32"></rect><rect width="168" height="64" rx="8" ry="8" fill-opacity="0.8" fill="#f5f6f6" stroke-opacity="1" stroke-width="1" stroke="#adb3b3" opacity="1" x="360" y="96"></rect><path d="M444 61.714285714285715C447.7875 61.714285714285715 450.8571428571429 58.644642857142856 450.8571428571429 54.85714285714286C450.8571428571429 51.06964285714285 447.7875 48 444 48C440.2125 48 437.1428571428571 51.06964285714285 437.1428571428571 54.85714285714286C437.1428571428571 58.644642857142856 440.2125 61.714285714285715 444 61.714285714285715ZM448.8 63.42857142857143L447.90535714285716 63.42857142857143C446.7160714285714 63.974999999999994 445.3928571428571 64.28571428571428 444 64.28571428571428C442.6071428571429 64.28571428571428 441.2892857142857 63.974999999999994 440.09464285714284 63.42857142857143L439.2 63.42857142857143C435.225 63.42857142857143 432 66.65357142857142 432 70.62857142857143L432 72.85714285714286C432 74.27678571428571 433.1517857142857 75.42857142857143 434.57142857142856 75.42857142857143L453.42857142857144 75.42857142857143C454.8482142857143 75.42857142857143 456 74.27678571428571 456 72.85714285714286L456 70.62857142857143C456 66.65357142857142 452.775 63.42857142857143 448.8 63.42857142857143Z " fill="#0c0d0d" opacity="1"></path><text font-family="Lato, Arial, sans-serif" font-size="16" text-anchor="middle" fill="#0c0d0d" opacity="1" x="444" y="125.19200000000001"><tspan dy="0" x="444">Document producer</tspan></text><g id="[Actor]" opacity="1"><text font-family="Lato, Arial, sans-serif" font-size="12" text-anchor="middle" fill="#595f61" x="443.99999999999994" y="148.644"><tspan dy="0" x="443.99999999999994">[Actor]</tspan></text></g></a><a href="https://app.icepanel.io/landscapes/RaFbGXGqECpWIiLQf7lQ/versions/latest/model/objects?object=n0crevwyavo&amp;focus=n0crevwyavo" id="DoclingTransformer" target="_blank"><rect width="312" height="160" rx="8" ry="8" fill-opacity="0.8" fill="#f5f6f6" stroke-opacity="1" stroke-width="1" stroke="#adb3b3" opacity="1" x="296" y="368"></rect><text font-family="Lato, Arial, sans-serif" font-size="24" text-anchor="middle" fill="#0c0d0d" opacity="1" x="452" y="427.288"><tspan dy="0" x="452">DoclingTransformer</tspan></text><g opacity="1"><text font-family="Lato, Arial, sans-serif" font-size="13" text-anchor="middle" fill="#595f61" x="452" y="462.031"><tspan dy="0" x="452">Transforms docx, xlsx, pptx, pdf files into</tspan></text><text font-family="Lato, Arial, sans-serif" font-size="13" text-anchor="middle" fill="#595f61" x="452" y="477.031"><tspan dy="0" x="452">markdown . Extracts images   save them on cloud</tspan></text><text font-family="Lato, Arial, sans-serif" font-size="13" text-anchor="middle" fill="#595f61" x="452" y="492.031"><tspan dy="0" x="452">blob storage</tspan></text></g><g id="[System]" opacity="1"><text font-family="Lato, Arial, sans-serif" font-size="12" text-anchor="middle" fill="#595f61" x="452" y="516.644"><tspan dy="0" x="452">[System]</tspan></text></g></a><a href="https://app.icepanel.io/landscapes/RaFbGXGqECpWIiLQf7lQ/versions/latest/model/objects?object=ymgm309husn&amp;focus=ymgm309husn" id="IBM-BlobStorage" target="_blank"><rect width="256" height="128" rx="8" ry="8" fill-opacity="0.8" fill="#f5f6f6" stroke-opacity="1" stroke-width="1" stroke="#adb3b3" opacity="1" x="72" y="720"></rect><text font-family="Lato, Arial, sans-serif" font-size="24" text-anchor="middle" fill="#0c0d0d" opacity="1" x="199.99999999999997" y="771.2879999999999"><tspan dy="0" x="199.99999999999997">IBM-BlobStorage</tspan></text><g opacity="1"><text font-family="Lato, Arial, sans-serif" font-size="14" text-anchor="middle" fill="#595f61" x="200" y="805.418"><tspan dy="0" x="200">Store  images </tspan></text></g><g id="[System]" opacity="1"><text font-family="Lato, Arial, sans-serif" font-size="12" text-anchor="middle" fill="#595f61" x="200" y="836.644"><tspan dy="0" x="200">[System]</tspan></text></g></a><a href="https://app.icepanel.io/landscapes/RaFbGXGqECpWIiLQf7lQ/versions/latest/model/objects?object=5rqxf1h3zz9&amp;focus=5rqxf1h3zz9" id="AZURE-BlobStorage" target="_blank"><rect width="256" height="128" rx="8" ry="8" fill-opacity="0.8" fill="#f5f6f6" stroke-opacity="1" stroke-width="1" stroke="#adb3b3" opacity="1" x="648" y="720"></rect><text font-family="Lato, Arial, sans-serif" font-size="24" text-anchor="middle" fill="#0c0d0d" opacity="1" x="776" y="771.2879999999999"><tspan dy="0" x="776">AZURE-BlobStorage</tspan></text><g opacity="1"><text font-family="Lato, Arial, sans-serif" font-size="14" text-anchor="middle" fill="#595f61" x="776" y="805.418"><tspan dy="0" x="776">Store  images</tspan></text></g><g id="[System]" opacity="1"><text font-family="Lato, Arial, sans-serif" font-size="12" text-anchor="middle" fill="#595f61" x="776" y="836.644"><tspan dy="0" x="776">[System]</tspan></text></g></a><a href="https://app.icepanel.io/landscapes/RaFbGXGqECpWIiLQf7lQ/versions/latest/model/objects?object=jtpie1jkfvd&amp;focus=jtpie1jkfvd" id="Document consumer" target="_blank"><rect width="56" height="56" rx="8" ry="8" fill-opacity="0.8" fill="#f5f6f6" stroke-opacity="1" stroke-width="1" stroke="#adb3b3" opacity="1" x="972" y="208"></rect><rect width="256" height="96" rx="8" ry="8" fill-opacity="0.8" fill="#f5f6f6" stroke-opacity="1" stroke-width="1" stroke="#adb3b3" opacity="1" x="872" y="272"></rect><path d="M1000 237.71428571428572C1003.7875 237.71428571428572 1006.8571428571429 234.64464285714286 1006.8571428571429 230.85714285714286C1006.8571428571429 227.06964285714287 1003.7875 224 1000 224C996.2125 224 993.1428571428571 227.06964285714287 993.1428571428571 230.85714285714286C993.1428571428571 234.64464285714286 996.2125 237.71428571428572 1000 237.71428571428572ZM1004.8 239.42857142857142L1003.9053571428572 239.42857142857142C1002.7160714285715 239.975 1001.3928571428571 240.28571428571428 1000 240.28571428571428C998.6071428571429 240.28571428571428 997.2892857142857 239.975 996.0946428571428 239.42857142857142L995.2 239.42857142857142C991.225 239.42857142857142 988 242.6535714285714 988 246.62857142857143L988 248.85714285714286C988 250.27678571428572 989.1517857142857 251.42857142857144 990.5714285714286 251.42857142857144L1009.4285714285714 251.42857142857144C1010.8482142857142 251.42857142857144 1012 250.27678571428572 1012 248.85714285714286L1012 246.62857142857143C1012 242.6535714285714 1008.775 239.42857142857142 1004.8 239.42857142857142Z " fill="#0c0d0d" opacity="1"></path><text font-family="Lato, Arial, sans-serif" font-size="24" text-anchor="middle" fill="#0c0d0d" opacity="1" x="1000.0000000000001" y="320.288"><tspan dy="0" x="1000.0000000000001">Document consumer</tspan></text><g id="[Actor]" opacity="1"><text font-family="Lato, Arial, sans-serif" font-size="12" text-anchor="middle" fill="#595f61" x="1000" y="356.64399999999995"><tspan dy="0" x="1000">[Actor]</tspan></text></g></a><g id="Uploads file for transformation through http"><polygon points="388.0470624979899,287.93740852668424 380.0470624979899,303.93740852668424 396.0470624979899,303.93740852668424 388.0470624979899,287.93740852668424" fill="#adb3b3" opacity="1" transform="matrix(-0.9999980823709183,0.001958380577468962,-0.001958380577468962,-0.9999980823709183,840.6102093960432,655.1769125391961)"></polygon><circle r="4" fill="#adb3b3" opacity="1" cx="444" cy="160"></circle></g><g id="Save extracted images on IBM Blob Storage"><polygon points="136,640 128,656 144,656 136,640" fill="#adb3b3" opacity="1" transform="matrix(-1,1.2246467991473532e-16,-1.2246467991473532e-16,-1,336.0000000000001,1360)"></polygon><circle r="4" fill="#adb3b3" opacity="1" cx="374" cy="528"></circle></g><g id="Saves extracted images  on  azure  Blob Storage"><polygon points="712,640 704,656 720,656 712,640" fill="#adb3b3" opacity="1" transform="matrix(-1,1.2246467991473532e-16,-1.2246467991473532e-16,-1,1488,1360)"></polygon><circle r="4" fill="#adb3b3" opacity="1" cx="530" cy="528"></circle></g><g id="Download markdown document through http"><polygon points="864.4239333927715,252.53541245431876 856.4239333927715,268.53541245431876 872.4239333927715,268.53541245431876 864.4239333927715,252.53541245431876" fill="#adb3b3" opacity="1" transform="matrix(0.013314398927589939,0.999911359462026,-0.999911359462026,0.013314398927589939,1113.0037424877535,-543.7096676150383)"></polygon><circle r="4" fill="#adb3b3" opacity="1" cx="608" cy="448"></circle></g><g id="Download extracted images through http"><polygon points="1000,368 992,384 1008,384 1000,368" fill="#adb3b3" opacity="1" transform="matrix(1,0,0,1,0,0)"></polygon><circle r="4" fill="#adb3b3" opacity="1" cx="608" cy="448"></circle></g></g></svg>